<?xml version="1.0" encoding="utf-8" standalone="no"?>
<!DOCTYPE svg PUBLIC "-//W3C//DTD SVG 1.1//EN"
  "http://www.w3.org/Graphics/SVG/1.1/DTD/svg11.dtd">
<!-- Created with matplotlib (https://matplotlib.org/) -->
<svg height="432pt" version="1.1" viewBox="0 0 1152 432" width="1152pt" xmlns="http://www.w3.org/2000/svg" xmlns:xlink="http://www.w3.org/1999/xlink">
 <metadata>
  <rdf:RDF xmlns:cc="http://creativecommons.org/ns#" xmlns:dc="http://purl.org/dc/elements/1.1/" xmlns:rdf="http://www.w3.org/1999/02/22-rdf-syntax-ns#">
   <cc:Work>
    <dc:type rdf:resource="http://purl.org/dc/dcmitype/StillImage"/>
    <dc:date>2022-01-26T14:04:14.664835</dc:date>
    <dc:format>image/svg+xml</dc:format>
    <dc:creator>
     <cc:Agent>
      <dc:title>Matplotlib v3.3.4, https://matplotlib.org/</dc:title>
     </cc:Agent>
    </dc:creator>
   </cc:Work>
  </rdf:RDF>
 </metadata>
 <defs>
  <style type="text/css">*{stroke-linecap:butt;stroke-linejoin:round;}</style>
 </defs>
 <g id="figure_1">
  <g id="patch_1">
   <path d="M 0 432 
L 1152 432 
L 1152 0 
L 0 0 
z
" style="fill:#f0f0f0;"/>
  </g>
  <g id="axes_1">
   <g id="patch_2">
    <path d="M 92.16 401.76 
L 1094.4 401.76 
L 1094.4 51.84 
L 92.16 51.84 
z
" style="fill:#f0f0f0;"/>
   </g>
   <g id="matplotlib.axis_1">
    <g id="xtick_1">
     <g id="line2d_1">
      <path clip-path="url(#pd56f36e515)" d="M 136.509573 401.76 
L 136.509573 51.84 
" style="fill:none;stroke:#cbcbcb;"/>
     </g>
     <g id="text_1">
      <!-- 2020-01 -->
      <g style="fill:#262626;" transform="translate(110.822854 415.280938)scale(0.14 -0.14)">
       <defs>
        <path d="M 50.34375 8.453125 
L 50.34375 0 
L 3.03125 0 
Q 2.9375 3.171875 4.046875 6.109375 
Q 5.859375 10.9375 9.828125 15.625 
Q 13.8125 20.3125 21.34375 26.46875 
Q 33.015625 36.03125 37.109375 41.625 
Q 41.21875 47.21875 41.21875 52.203125 
Q 41.21875 57.421875 37.46875 61 
Q 33.734375 64.59375 27.734375 64.59375 
Q 21.390625 64.59375 17.578125 60.78125 
Q 13.765625 56.984375 13.71875 50.25 
L 4.6875 51.171875 
Q 5.609375 61.28125 11.65625 66.578125 
Q 17.71875 71.875 27.9375 71.875 
Q 38.234375 71.875 44.234375 66.15625 
Q 50.25 60.453125 50.25 52 
Q 50.25 47.703125 48.484375 43.546875 
Q 46.734375 39.40625 42.65625 34.8125 
Q 38.578125 30.21875 29.109375 22.21875 
Q 21.1875 15.578125 18.9375 13.203125 
Q 16.703125 10.84375 15.234375 8.453125 
z
" id="ArialMT-50"/>
        <path d="M 4.15625 35.296875 
Q 4.15625 48 6.765625 55.734375 
Q 9.375 63.484375 14.515625 67.671875 
Q 19.671875 71.875 27.484375 71.875 
Q 33.25 71.875 37.59375 69.546875 
Q 41.9375 67.234375 44.765625 62.859375 
Q 47.609375 58.5 49.21875 52.21875 
Q 50.828125 45.953125 50.828125 35.296875 
Q 50.828125 22.703125 48.234375 14.96875 
Q 45.65625 7.234375 40.5 3 
Q 35.359375 -1.21875 27.484375 -1.21875 
Q 17.140625 -1.21875 11.234375 6.203125 
Q 4.15625 15.140625 4.15625 35.296875 
z
M 13.1875 35.296875 
Q 13.1875 17.671875 17.3125 11.828125 
Q 21.4375 6 27.484375 6 
Q 33.546875 6 37.671875 11.859375 
Q 41.796875 17.71875 41.796875 35.296875 
Q 41.796875 52.984375 37.671875 58.78125 
Q 33.546875 64.59375 27.390625 64.59375 
Q 21.34375 64.59375 17.71875 59.46875 
Q 13.1875 52.9375 13.1875 35.296875 
z
" id="ArialMT-48"/>
        <path d="M 3.171875 21.484375 
L 3.171875 30.328125 
L 30.171875 30.328125 
L 30.171875 21.484375 
z
" id="ArialMT-45"/>
        <path d="M 37.25 0 
L 28.46875 0 
L 28.46875 56 
Q 25.296875 52.984375 20.140625 49.953125 
Q 14.984375 46.921875 10.890625 45.40625 
L 10.890625 53.90625 
Q 18.265625 57.375 23.78125 62.296875 
Q 29.296875 67.234375 31.59375 71.875 
L 37.25 71.875 
z
" id="ArialMT-49"/>
       </defs>
       <use xlink:href="#ArialMT-50"/>
       <use x="55.615234" xlink:href="#ArialMT-48"/>
       <use x="111.230469" xlink:href="#ArialMT-50"/>
       <use x="166.845703" xlink:href="#ArialMT-48"/>
       <use x="222.460938" xlink:href="#ArialMT-45"/>
       <use x="255.761719" xlink:href="#ArialMT-48"/>
       <use x="311.376953" xlink:href="#ArialMT-49"/>
      </g>
     </g>
    </g>
    <g id="xtick_2">
     <g id="line2d_2">
      <path clip-path="url(#pd56f36e515)" d="M 246.327562 401.76 
L 246.327562 51.84 
" style="fill:none;stroke:#cbcbcb;"/>
     </g>
     <g id="text_2">
      <!-- 2020-04 -->
      <g style="fill:#262626;" transform="translate(220.640843 415.280938)scale(0.14 -0.14)">
       <defs>
        <path d="M 32.328125 0 
L 32.328125 17.140625 
L 1.265625 17.140625 
L 1.265625 25.203125 
L 33.9375 71.578125 
L 41.109375 71.578125 
L 41.109375 25.203125 
L 50.78125 25.203125 
L 50.78125 17.140625 
L 41.109375 17.140625 
L 41.109375 0 
z
M 32.328125 25.203125 
L 32.328125 57.46875 
L 9.90625 25.203125 
z
" id="ArialMT-52"/>
       </defs>
       <use xlink:href="#ArialMT-50"/>
       <use x="55.615234" xlink:href="#ArialMT-48"/>
       <use x="111.230469" xlink:href="#ArialMT-50"/>
       <use x="166.845703" xlink:href="#ArialMT-48"/>
       <use x="222.460938" xlink:href="#ArialMT-45"/>
       <use x="255.761719" xlink:href="#ArialMT-48"/>
       <use x="311.376953" xlink:href="#ArialMT-52"/>
      </g>
     </g>
    </g>
    <g id="xtick_3">
     <g id="line2d_3">
      <path clip-path="url(#pd56f36e515)" d="M 356.145551 401.76 
L 356.145551 51.84 
" style="fill:none;stroke:#cbcbcb;"/>
     </g>
     <g id="text_3">
      <!-- 2020-07 -->
      <g style="fill:#262626;" transform="translate(330.458832 415.280938)scale(0.14 -0.14)">
       <defs>
        <path d="M 4.734375 62.203125 
L 4.734375 70.65625 
L 51.078125 70.65625 
L 51.078125 63.8125 
Q 44.234375 56.546875 37.515625 44.484375 
Q 30.8125 32.421875 27.15625 19.671875 
Q 24.515625 10.6875 23.78125 0 
L 14.75 0 
Q 14.890625 8.453125 18.0625 20.40625 
Q 21.234375 32.375 27.171875 43.484375 
Q 33.109375 54.59375 39.796875 62.203125 
z
" id="ArialMT-55"/>
       </defs>
       <use xlink:href="#ArialMT-50"/>
       <use x="55.615234" xlink:href="#ArialMT-48"/>
       <use x="111.230469" xlink:href="#ArialMT-50"/>
       <use x="166.845703" xlink:href="#ArialMT-48"/>
       <use x="222.460938" xlink:href="#ArialMT-45"/>
       <use x="255.761719" xlink:href="#ArialMT-48"/>
       <use x="311.376953" xlink:href="#ArialMT-55"/>
      </g>
     </g>
    </g>
    <g id="xtick_4">
     <g id="line2d_4">
      <path clip-path="url(#pd56f36e515)" d="M 467.170331 401.76 
L 467.170331 51.84 
" style="fill:none;stroke:#cbcbcb;"/>
     </g>
     <g id="text_4">
      <!-- 2020-10 -->
      <g style="fill:#262626;" transform="translate(441.483612 415.280938)scale(0.14 -0.14)">
       <use xlink:href="#ArialMT-50"/>
       <use x="55.615234" xlink:href="#ArialMT-48"/>
       <use x="111.230469" xlink:href="#ArialMT-50"/>
       <use x="166.845703" xlink:href="#ArialMT-48"/>
       <use x="222.460938" xlink:href="#ArialMT-45"/>
       <use x="255.761719" xlink:href="#ArialMT-49"/>
       <use x="311.376953" xlink:href="#ArialMT-48"/>
      </g>
     </g>
    </g>
    <g id="xtick_5">
     <g id="line2d_5">
      <path clip-path="url(#pd56f36e515)" d="M 578.195111 401.76 
L 578.195111 51.84 
" style="fill:none;stroke:#cbcbcb;"/>
     </g>
     <g id="text_5">
      <!-- 2021-01 -->
      <g style="fill:#262626;" transform="translate(552.508393 415.280938)scale(0.14 -0.14)">
       <use xlink:href="#ArialMT-50"/>
       <use x="55.615234" xlink:href="#ArialMT-48"/>
       <use x="111.230469" xlink:href="#ArialMT-50"/>
       <use x="166.845703" xlink:href="#ArialMT-49"/>
       <use x="222.460938" xlink:href="#ArialMT-45"/>
       <use x="255.761719" xlink:href="#ArialMT-48"/>
       <use x="311.376953" xlink:href="#ArialMT-49"/>
      </g>
     </g>
    </g>
    <g id="xtick_6">
     <g id="line2d_6">
      <path clip-path="url(#pd56f36e515)" d="M 686.806309 401.76 
L 686.806309 51.84 
" style="fill:none;stroke:#cbcbcb;"/>
     </g>
     <g id="text_6">
      <!-- 2021-04 -->
      <g style="fill:#262626;" transform="translate(661.119591 415.280938)scale(0.14 -0.14)">
       <use xlink:href="#ArialMT-50"/>
       <use x="55.615234" xlink:href="#ArialMT-48"/>
       <use x="111.230469" xlink:href="#ArialMT-50"/>
       <use x="166.845703" xlink:href="#ArialMT-49"/>
       <use x="222.460938" xlink:href="#ArialMT-45"/>
       <use x="255.761719" xlink:href="#ArialMT-48"/>
       <use x="311.376953" xlink:href="#ArialMT-52"/>
      </g>
     </g>
    </g>
    <g id="xtick_7">
     <g id="line2d_7">
      <path clip-path="url(#pd56f36e515)" d="M 796.624299 401.76 
L 796.624299 51.84 
" style="fill:none;stroke:#cbcbcb;"/>
     </g>
     <g id="text_7">
      <!-- 2021-07 -->
      <g style="fill:#262626;" transform="translate(770.93758 415.280938)scale(0.14 -0.14)">
       <use xlink:href="#ArialMT-50"/>
       <use x="55.615234" xlink:href="#ArialMT-48"/>
       <use x="111.230469" xlink:href="#ArialMT-50"/>
       <use x="166.845703" xlink:href="#ArialMT-49"/>
       <use x="222.460938" xlink:href="#ArialMT-45"/>
       <use x="255.761719" xlink:href="#ArialMT-48"/>
       <use x="311.376953" xlink:href="#ArialMT-55"/>
      </g>
     </g>
    </g>
    <g id="xtick_8">
     <g id="line2d_8">
      <path clip-path="url(#pd56f36e515)" d="M 907.649079 401.76 
L 907.649079 51.84 
" style="fill:none;stroke:#cbcbcb;"/>
     </g>
     <g id="text_8">
      <!-- 2021-10 -->
      <g style="fill:#262626;" transform="translate(881.96236 415.280938)scale(0.14 -0.14)">
       <use xlink:href="#ArialMT-50"/>
       <use x="55.615234" xlink:href="#ArialMT-48"/>
       <use x="111.230469" xlink:href="#ArialMT-50"/>
       <use x="166.845703" xlink:href="#ArialMT-49"/>
       <use x="222.460938" xlink:href="#ArialMT-45"/>
       <use x="255.761719" xlink:href="#ArialMT-49"/>
       <use x="311.376953" xlink:href="#ArialMT-48"/>
      </g>
     </g>
    </g>
    <g id="xtick_9">
     <g id="line2d_9">
      <path clip-path="url(#pd56f36e515)" d="M 1018.673859 401.76 
L 1018.673859 51.84 
" style="fill:none;stroke:#cbcbcb;"/>
     </g>
     <g id="text_9">
      <!-- 2022-01 -->
      <g style="fill:#262626;" transform="translate(992.98714 415.280938)scale(0.14 -0.14)">
       <use xlink:href="#ArialMT-50"/>
       <use x="55.615234" xlink:href="#ArialMT-48"/>
       <use x="111.230469" xlink:href="#ArialMT-50"/>
       <use x="166.845703" xlink:href="#ArialMT-50"/>
       <use x="222.460938" xlink:href="#ArialMT-45"/>
       <use x="255.761719" xlink:href="#ArialMT-48"/>
       <use x="311.376953" xlink:href="#ArialMT-49"/>
      </g>
     </g>
    </g>
    <g id="text_10">
     <!-- Date -->
     <g style="fill:#262626;" transform="translate(574.270312 434.9475)scale(0.18 -0.18)">
      <defs>
       <path d="M 7.71875 0 
L 7.71875 71.578125 
L 32.375 71.578125 
Q 40.71875 71.578125 45.125 70.5625 
Q 51.265625 69.140625 55.609375 65.4375 
Q 61.28125 60.640625 64.078125 53.1875 
Q 66.890625 45.75 66.890625 36.1875 
Q 66.890625 28.03125 64.984375 21.734375 
Q 63.09375 15.4375 60.109375 11.296875 
Q 57.125 7.171875 53.578125 4.796875 
Q 50.046875 2.4375 45.046875 1.21875 
Q 40.046875 0 33.546875 0 
z
M 17.1875 8.453125 
L 32.46875 8.453125 
Q 39.546875 8.453125 43.578125 9.765625 
Q 47.609375 11.078125 50 13.484375 
Q 53.375 16.84375 55.25 22.53125 
Q 57.125 28.21875 57.125 36.328125 
Q 57.125 47.5625 53.4375 53.59375 
Q 49.75 59.625 44.484375 61.671875 
Q 40.671875 63.140625 32.234375 63.140625 
L 17.1875 63.140625 
z
" id="ArialMT-68"/>
       <path d="M 40.4375 6.390625 
Q 35.546875 2.25 31.03125 0.53125 
Q 26.515625 -1.171875 21.34375 -1.171875 
Q 12.796875 -1.171875 8.203125 3 
Q 3.609375 7.171875 3.609375 13.671875 
Q 3.609375 17.484375 5.34375 20.625 
Q 7.078125 23.78125 9.890625 25.6875 
Q 12.703125 27.59375 16.21875 28.5625 
Q 18.796875 29.25 24.03125 29.890625 
Q 34.671875 31.15625 39.703125 32.90625 
Q 39.75 34.71875 39.75 35.203125 
Q 39.75 40.578125 37.25 42.78125 
Q 33.890625 45.75 27.25 45.75 
Q 21.046875 45.75 18.09375 43.578125 
Q 15.140625 41.40625 13.71875 35.890625 
L 5.125 37.0625 
Q 6.296875 42.578125 8.984375 45.96875 
Q 11.671875 49.359375 16.75 51.1875 
Q 21.828125 53.03125 28.515625 53.03125 
Q 35.15625 53.03125 39.296875 51.46875 
Q 43.453125 49.90625 45.40625 47.53125 
Q 47.359375 45.171875 48.140625 41.546875 
Q 48.578125 39.3125 48.578125 33.453125 
L 48.578125 21.734375 
Q 48.578125 9.46875 49.140625 6.21875 
Q 49.703125 2.984375 51.375 0 
L 42.1875 0 
Q 40.828125 2.734375 40.4375 6.390625 
z
M 39.703125 26.03125 
Q 34.90625 24.078125 25.34375 22.703125 
Q 19.921875 21.921875 17.671875 20.9375 
Q 15.4375 19.96875 14.203125 18.09375 
Q 12.984375 16.21875 12.984375 13.921875 
Q 12.984375 10.40625 15.640625 8.0625 
Q 18.3125 5.71875 23.4375 5.71875 
Q 28.515625 5.71875 32.46875 7.9375 
Q 36.421875 10.15625 38.28125 14.015625 
Q 39.703125 17 39.703125 22.796875 
z
" id="ArialMT-97"/>
       <path d="M 25.78125 7.859375 
L 27.046875 0.09375 
Q 23.34375 -0.6875 20.40625 -0.6875 
Q 15.625 -0.6875 12.984375 0.828125 
Q 10.359375 2.34375 9.28125 4.8125 
Q 8.203125 7.28125 8.203125 15.1875 
L 8.203125 45.015625 
L 1.765625 45.015625 
L 1.765625 51.859375 
L 8.203125 51.859375 
L 8.203125 64.703125 
L 16.9375 69.96875 
L 16.9375 51.859375 
L 25.78125 51.859375 
L 25.78125 45.015625 
L 16.9375 45.015625 
L 16.9375 14.703125 
Q 16.9375 10.9375 17.40625 9.859375 
Q 17.875 8.796875 18.921875 8.15625 
Q 19.96875 7.515625 21.921875 7.515625 
Q 23.390625 7.515625 25.78125 7.859375 
z
" id="ArialMT-116"/>
       <path d="M 42.09375 16.703125 
L 51.171875 15.578125 
Q 49.03125 7.625 43.21875 3.21875 
Q 37.40625 -1.171875 28.375 -1.171875 
Q 17 -1.171875 10.328125 5.828125 
Q 3.65625 12.84375 3.65625 25.484375 
Q 3.65625 38.578125 10.390625 45.796875 
Q 17.140625 53.03125 27.875 53.03125 
Q 38.28125 53.03125 44.875 45.953125 
Q 51.46875 38.875 51.46875 26.03125 
Q 51.46875 25.25 51.421875 23.6875 
L 12.75 23.6875 
Q 13.234375 15.140625 17.578125 10.59375 
Q 21.921875 6.0625 28.421875 6.0625 
Q 33.25 6.0625 36.671875 8.59375 
Q 40.09375 11.140625 42.09375 16.703125 
z
M 13.234375 30.90625 
L 42.1875 30.90625 
Q 41.609375 37.453125 38.875 40.71875 
Q 34.671875 45.796875 27.984375 45.796875 
Q 21.921875 45.796875 17.796875 41.75 
Q 13.671875 37.703125 13.234375 30.90625 
z
" id="ArialMT-101"/>
      </defs>
      <use xlink:href="#ArialMT-68"/>
      <use x="72.216797" xlink:href="#ArialMT-97"/>
      <use x="127.832031" xlink:href="#ArialMT-116"/>
      <use x="155.615234" xlink:href="#ArialMT-101"/>
     </g>
    </g>
   </g>
   <g id="matplotlib.axis_2">
    <g id="ytick_1">
     <g id="line2d_10">
      <path clip-path="url(#pd56f36e515)" d="M 92.16 399.914616 
L 1094.4 399.914616 
" style="fill:none;stroke:#cbcbcb;"/>
     </g>
     <g id="text_11">
      <!-- 2000 -->
      <g style="fill:#262626;" transform="translate(57.51875 404.925085)scale(0.14 -0.14)">
       <use xlink:href="#ArialMT-50"/>
       <use x="55.615234" xlink:href="#ArialMT-48"/>
       <use x="111.230469" xlink:href="#ArialMT-48"/>
       <use x="166.845703" xlink:href="#ArialMT-48"/>
      </g>
     </g>
    </g>
    <g id="ytick_2">
     <g id="line2d_11">
      <path clip-path="url(#pd56f36e515)" d="M 92.16 329.614264 
L 1094.4 329.614264 
" style="fill:none;stroke:#cbcbcb;"/>
     </g>
     <g id="text_12">
      <!-- 4000 -->
      <g style="fill:#262626;" transform="translate(57.51875 334.624733)scale(0.14 -0.14)">
       <use xlink:href="#ArialMT-52"/>
       <use x="55.615234" xlink:href="#ArialMT-48"/>
       <use x="111.230469" xlink:href="#ArialMT-48"/>
       <use x="166.845703" xlink:href="#ArialMT-48"/>
      </g>
     </g>
    </g>
    <g id="ytick_3">
     <g id="line2d_12">
      <path clip-path="url(#pd56f36e515)" d="M 92.16 259.313913 
L 1094.4 259.313913 
" style="fill:none;stroke:#cbcbcb;"/>
     </g>
     <g id="text_13">
      <!-- 6000 -->
      <g style="fill:#262626;" transform="translate(57.51875 264.324381)scale(0.14 -0.14)">
       <defs>
        <path d="M 49.75 54.046875 
L 41.015625 53.375 
Q 39.84375 58.546875 37.703125 60.890625 
Q 34.125 64.65625 28.90625 64.65625 
Q 24.703125 64.65625 21.53125 62.3125 
Q 17.390625 59.28125 14.984375 53.46875 
Q 12.59375 47.65625 12.5 36.921875 
Q 15.671875 41.75 20.265625 44.09375 
Q 24.859375 46.4375 29.890625 46.4375 
Q 38.671875 46.4375 44.84375 39.96875 
Q 51.03125 33.5 51.03125 23.25 
Q 51.03125 16.5 48.125 10.71875 
Q 45.21875 4.9375 40.140625 1.859375 
Q 35.0625 -1.21875 28.609375 -1.21875 
Q 17.625 -1.21875 10.6875 6.859375 
Q 3.765625 14.9375 3.765625 33.5 
Q 3.765625 54.25 11.421875 63.671875 
Q 18.109375 71.875 29.4375 71.875 
Q 37.890625 71.875 43.28125 67.140625 
Q 48.6875 62.40625 49.75 54.046875 
z
M 13.875 23.1875 
Q 13.875 18.65625 15.796875 14.5 
Q 17.71875 10.359375 21.1875 8.171875 
Q 24.65625 6 28.46875 6 
Q 34.03125 6 38.03125 10.484375 
Q 42.046875 14.984375 42.046875 22.703125 
Q 42.046875 30.125 38.078125 34.390625 
Q 34.125 38.671875 28.125 38.671875 
Q 22.171875 38.671875 18.015625 34.390625 
Q 13.875 30.125 13.875 23.1875 
z
" id="ArialMT-54"/>
       </defs>
       <use xlink:href="#ArialMT-54"/>
       <use x="55.615234" xlink:href="#ArialMT-48"/>
       <use x="111.230469" xlink:href="#ArialMT-48"/>
       <use x="166.845703" xlink:href="#ArialMT-48"/>
      </g>
     </g>
    </g>
    <g id="ytick_4">
     <g id="line2d_13">
      <path clip-path="url(#pd56f36e515)" d="M 92.16 189.013561 
L 1094.4 189.013561 
" style="fill:none;stroke:#cbcbcb;"/>
     </g>
     <g id="text_14">
      <!-- 8000 -->
      <g style="fill:#262626;" transform="translate(57.51875 194.02403)scale(0.14 -0.14)">
       <defs>
        <path d="M 17.671875 38.8125 
Q 12.203125 40.828125 9.5625 44.53125 
Q 6.9375 48.25 6.9375 53.421875 
Q 6.9375 61.234375 12.546875 66.546875 
Q 18.171875 71.875 27.484375 71.875 
Q 36.859375 71.875 42.578125 66.421875 
Q 48.296875 60.984375 48.296875 53.171875 
Q 48.296875 48.1875 45.671875 44.5 
Q 43.0625 40.828125 37.75 38.8125 
Q 44.34375 36.671875 47.78125 31.875 
Q 51.21875 27.09375 51.21875 20.453125 
Q 51.21875 11.28125 44.71875 5.03125 
Q 38.234375 -1.21875 27.640625 -1.21875 
Q 17.046875 -1.21875 10.546875 5.046875 
Q 4.046875 11.328125 4.046875 20.703125 
Q 4.046875 27.6875 7.59375 32.390625 
Q 11.140625 37.109375 17.671875 38.8125 
z
M 15.921875 53.71875 
Q 15.921875 48.640625 19.1875 45.40625 
Q 22.46875 42.1875 27.6875 42.1875 
Q 32.765625 42.1875 36.015625 45.375 
Q 39.265625 48.578125 39.265625 53.21875 
Q 39.265625 58.0625 35.90625 61.359375 
Q 32.5625 64.65625 27.59375 64.65625 
Q 22.5625 64.65625 19.234375 61.421875 
Q 15.921875 58.203125 15.921875 53.71875 
z
M 13.09375 20.65625 
Q 13.09375 16.890625 14.875 13.375 
Q 16.65625 9.859375 20.171875 7.921875 
Q 23.6875 6 27.734375 6 
Q 34.03125 6 38.125 10.046875 
Q 42.234375 14.109375 42.234375 20.359375 
Q 42.234375 26.703125 38.015625 30.859375 
Q 33.796875 35.015625 27.4375 35.015625 
Q 21.234375 35.015625 17.15625 30.90625 
Q 13.09375 26.8125 13.09375 20.65625 
z
" id="ArialMT-56"/>
       </defs>
       <use xlink:href="#ArialMT-56"/>
       <use x="55.615234" xlink:href="#ArialMT-48"/>
       <use x="111.230469" xlink:href="#ArialMT-48"/>
       <use x="166.845703" xlink:href="#ArialMT-48"/>
      </g>
     </g>
    </g>
    <g id="ytick_5">
     <g id="line2d_14">
      <path clip-path="url(#pd56f36e515)" d="M 92.16 118.713209 
L 1094.4 118.713209 
" style="fill:none;stroke:#cbcbcb;"/>
     </g>
     <g id="text_15">
      <!-- 10000 -->
      <g style="fill:#262626;" transform="translate(49.733437 123.723678)scale(0.14 -0.14)">
       <use xlink:href="#ArialMT-49"/>
       <use x="55.615234" xlink:href="#ArialMT-48"/>
       <use x="111.230469" xlink:href="#ArialMT-48"/>
       <use x="166.845703" xlink:href="#ArialMT-48"/>
       <use x="222.460938" xlink:href="#ArialMT-48"/>
      </g>
     </g>
    </g>
    <g id="text_16">
     <!-- Close Price KRW -->
     <g style="fill:#262626;" transform="translate(42.155937 296.154844)rotate(-90)scale(0.18 -0.18)">
      <defs>
       <path d="M 58.796875 25.09375 
L 68.265625 22.703125 
Q 65.28125 11.03125 57.546875 4.90625 
Q 49.8125 -1.21875 38.625 -1.21875 
Q 27.046875 -1.21875 19.796875 3.484375 
Q 12.546875 8.203125 8.765625 17.140625 
Q 4.984375 26.078125 4.984375 36.328125 
Q 4.984375 47.515625 9.25 55.828125 
Q 13.53125 64.15625 21.40625 68.46875 
Q 29.296875 72.796875 38.765625 72.796875 
Q 49.515625 72.796875 56.828125 67.328125 
Q 64.15625 61.859375 67.046875 51.953125 
L 57.71875 49.75 
Q 55.21875 57.5625 50.484375 61.125 
Q 45.75 64.703125 38.578125 64.703125 
Q 30.328125 64.703125 24.78125 60.734375 
Q 19.234375 56.78125 16.984375 50.109375 
Q 14.75 43.453125 14.75 36.375 
Q 14.75 27.25 17.40625 20.4375 
Q 20.0625 13.625 25.671875 10.25 
Q 31.296875 6.890625 37.84375 6.890625 
Q 45.796875 6.890625 51.3125 11.46875 
Q 56.84375 16.0625 58.796875 25.09375 
z
" id="ArialMT-67"/>
       <path d="M 6.390625 0 
L 6.390625 71.578125 
L 15.1875 71.578125 
L 15.1875 0 
z
" id="ArialMT-108"/>
       <path d="M 3.328125 25.921875 
Q 3.328125 40.328125 11.328125 47.265625 
Q 18.015625 53.03125 27.640625 53.03125 
Q 38.328125 53.03125 45.109375 46.015625 
Q 51.90625 39.015625 51.90625 26.65625 
Q 51.90625 16.65625 48.90625 10.90625 
Q 45.90625 5.171875 40.15625 2 
Q 34.421875 -1.171875 27.640625 -1.171875 
Q 16.75 -1.171875 10.03125 5.8125 
Q 3.328125 12.796875 3.328125 25.921875 
z
M 12.359375 25.921875 
Q 12.359375 15.96875 16.703125 11.015625 
Q 21.046875 6.0625 27.640625 6.0625 
Q 34.1875 6.0625 38.53125 11.03125 
Q 42.875 16.015625 42.875 26.21875 
Q 42.875 35.84375 38.5 40.796875 
Q 34.125 45.75 27.640625 45.75 
Q 21.046875 45.75 16.703125 40.8125 
Q 12.359375 35.890625 12.359375 25.921875 
z
" id="ArialMT-111"/>
       <path d="M 3.078125 15.484375 
L 11.765625 16.84375 
Q 12.5 11.625 15.84375 8.84375 
Q 19.1875 6.0625 25.203125 6.0625 
Q 31.25 6.0625 34.171875 8.515625 
Q 37.109375 10.984375 37.109375 14.3125 
Q 37.109375 17.28125 34.515625 19 
Q 32.71875 20.171875 25.53125 21.96875 
Q 15.875 24.421875 12.140625 26.203125 
Q 8.40625 27.984375 6.46875 31.125 
Q 4.546875 34.28125 4.546875 38.09375 
Q 4.546875 41.546875 6.125 44.5 
Q 7.71875 47.46875 10.453125 49.421875 
Q 12.5 50.921875 16.03125 51.96875 
Q 19.578125 53.03125 23.640625 53.03125 
Q 29.734375 53.03125 34.34375 51.265625 
Q 38.96875 49.515625 41.15625 46.5 
Q 43.359375 43.5 44.1875 38.484375 
L 35.59375 37.3125 
Q 35.015625 41.3125 32.203125 43.546875 
Q 29.390625 45.796875 24.265625 45.796875 
Q 18.21875 45.796875 15.625 43.796875 
Q 13.03125 41.796875 13.03125 39.109375 
Q 13.03125 37.40625 14.109375 36.03125 
Q 15.1875 34.625 17.484375 33.6875 
Q 18.796875 33.203125 25.25 31.453125 
Q 34.578125 28.953125 38.25 27.359375 
Q 41.9375 25.78125 44.03125 22.75 
Q 46.140625 19.734375 46.140625 15.234375 
Q 46.140625 10.84375 43.578125 6.953125 
Q 41.015625 3.078125 36.171875 0.953125 
Q 31.34375 -1.171875 25.25 -1.171875 
Q 15.140625 -1.171875 9.84375 3.03125 
Q 4.546875 7.234375 3.078125 15.484375 
z
" id="ArialMT-115"/>
       <path id="ArialMT-32"/>
       <path d="M 7.71875 0 
L 7.71875 71.578125 
L 34.71875 71.578125 
Q 41.84375 71.578125 45.609375 70.90625 
Q 50.875 70.015625 54.4375 67.546875 
Q 58.015625 65.09375 60.1875 60.640625 
Q 62.359375 56.203125 62.359375 50.875 
Q 62.359375 41.75 56.546875 35.421875 
Q 50.734375 29.109375 35.546875 29.109375 
L 17.1875 29.109375 
L 17.1875 0 
z
M 17.1875 37.546875 
L 35.6875 37.546875 
Q 44.875 37.546875 48.734375 40.96875 
Q 52.59375 44.390625 52.59375 50.59375 
Q 52.59375 55.078125 50.3125 58.265625 
Q 48.046875 61.46875 44.34375 62.5 
Q 41.9375 63.140625 35.5 63.140625 
L 17.1875 63.140625 
z
" id="ArialMT-80"/>
       <path d="M 6.5 0 
L 6.5 51.859375 
L 14.40625 51.859375 
L 14.40625 44 
Q 17.4375 49.515625 20 51.265625 
Q 22.5625 53.03125 25.640625 53.03125 
Q 30.078125 53.03125 34.671875 50.203125 
L 31.640625 42.046875 
Q 28.421875 43.953125 25.203125 43.953125 
Q 22.3125 43.953125 20.015625 42.21875 
Q 17.71875 40.484375 16.75 37.40625 
Q 15.28125 32.71875 15.28125 27.15625 
L 15.28125 0 
z
" id="ArialMT-114"/>
       <path d="M 6.640625 61.46875 
L 6.640625 71.578125 
L 15.4375 71.578125 
L 15.4375 61.46875 
z
M 6.640625 0 
L 6.640625 51.859375 
L 15.4375 51.859375 
L 15.4375 0 
z
" id="ArialMT-105"/>
       <path d="M 40.4375 19 
L 49.078125 17.875 
Q 47.65625 8.9375 41.8125 3.875 
Q 35.984375 -1.171875 27.484375 -1.171875 
Q 16.84375 -1.171875 10.375 5.78125 
Q 3.90625 12.75 3.90625 25.734375 
Q 3.90625 34.125 6.6875 40.421875 
Q 9.46875 46.734375 15.15625 49.875 
Q 20.84375 53.03125 27.546875 53.03125 
Q 35.984375 53.03125 41.359375 48.75 
Q 46.734375 44.484375 48.25 36.625 
L 39.703125 35.296875 
Q 38.484375 40.53125 35.375 43.15625 
Q 32.28125 45.796875 27.875 45.796875 
Q 21.234375 45.796875 17.078125 41.03125 
Q 12.9375 36.28125 12.9375 25.984375 
Q 12.9375 15.53125 16.9375 10.796875 
Q 20.953125 6.0625 27.390625 6.0625 
Q 32.5625 6.0625 36.03125 9.234375 
Q 39.5 12.40625 40.4375 19 
z
" id="ArialMT-99"/>
       <path d="M 7.328125 0 
L 7.328125 71.578125 
L 16.796875 71.578125 
L 16.796875 36.078125 
L 52.34375 71.578125 
L 65.1875 71.578125 
L 35.15625 42.578125 
L 66.5 0 
L 54 0 
L 28.515625 36.234375 
L 16.796875 24.8125 
L 16.796875 0 
z
" id="ArialMT-75"/>
       <path d="M 7.859375 0 
L 7.859375 71.578125 
L 39.59375 71.578125 
Q 49.171875 71.578125 54.140625 69.640625 
Q 59.125 67.71875 62.109375 62.828125 
Q 65.09375 57.953125 65.09375 52.046875 
Q 65.09375 44.4375 60.15625 39.203125 
Q 55.21875 33.984375 44.921875 32.5625 
Q 48.6875 30.765625 50.640625 29 
Q 54.78125 25.203125 58.5 19.484375 
L 70.953125 0 
L 59.03125 0 
L 49.5625 14.890625 
Q 45.40625 21.34375 42.71875 24.75 
Q 40.046875 28.171875 37.921875 29.53125 
Q 35.796875 30.90625 33.59375 31.453125 
Q 31.984375 31.78125 28.328125 31.78125 
L 17.328125 31.78125 
L 17.328125 0 
z
M 17.328125 39.984375 
L 37.703125 39.984375 
Q 44.1875 39.984375 47.84375 41.328125 
Q 51.515625 42.671875 53.421875 45.625 
Q 55.328125 48.578125 55.328125 52.046875 
Q 55.328125 57.125 51.640625 60.390625 
Q 47.953125 63.671875 39.984375 63.671875 
L 17.328125 63.671875 
z
" id="ArialMT-82"/>
       <path d="M 20.21875 0 
L 1.21875 71.578125 
L 10.9375 71.578125 
L 21.828125 24.65625 
Q 23.578125 17.28125 24.859375 10.015625 
Q 27.59375 21.484375 28.078125 23.25 
L 41.703125 71.578125 
L 53.125 71.578125 
L 63.375 35.359375 
Q 67.234375 21.875 68.953125 10.015625 
Q 70.3125 16.796875 72.515625 25.59375 
L 83.734375 71.578125 
L 93.265625 71.578125 
L 73.640625 0 
L 64.5 0 
L 49.421875 54.546875 
Q 47.515625 61.375 47.171875 62.9375 
Q 46.046875 58.015625 45.0625 54.546875 
L 29.890625 0 
z
" id="ArialMT-87"/>
      </defs>
      <use xlink:href="#ArialMT-67"/>
      <use x="72.216797" xlink:href="#ArialMT-108"/>
      <use x="94.433594" xlink:href="#ArialMT-111"/>
      <use x="150.048828" xlink:href="#ArialMT-115"/>
      <use x="200.048828" xlink:href="#ArialMT-101"/>
      <use x="255.664062" xlink:href="#ArialMT-32"/>
      <use x="283.447266" xlink:href="#ArialMT-80"/>
      <use x="350.146484" xlink:href="#ArialMT-114"/>
      <use x="383.447266" xlink:href="#ArialMT-105"/>
      <use x="405.664062" xlink:href="#ArialMT-99"/>
      <use x="455.664062" xlink:href="#ArialMT-101"/>
      <use x="511.279297" xlink:href="#ArialMT-32"/>
      <use x="539.0625" xlink:href="#ArialMT-75"/>
      <use x="605.761719" xlink:href="#ArialMT-82"/>
      <use x="676.228516" xlink:href="#ArialMT-87"/>
     </g>
    </g>
   </g>
   <g id="line2d_15">
    <path clip-path="url(#pd56f36e515)" d="M 137.716364 276.889001 
L 138.923155 278.295008 
L 143.750319 280.75552 
L 144.95711 292.70658 
L 146.163901 286.379548 
L 147.370692 283.919036 
L 150.991066 281.458523 
L 152.197857 281.458523 
L 153.404648 278.295008 
L 154.611439 282.513029 
L 155.81823 275.834495 
L 159.438603 269.858965 
L 160.645394 266.69545 
L 161.852185 268.101457 
L 163.058977 262.477428 
L 169.092932 270.561969 
L 170.299723 272.670979 
L 171.506514 277.943506 
L 172.713305 286.379548 
L 176.333679 289.191562 
L 177.54047 287.434053 
L 179.954052 288.137057 
L 181.160843 293.409583 
L 184.781216 295.167092 
L 185.988007 292.003576 
L 187.194798 290.597569 
L 188.401589 292.70658 
L 189.60838 288.137057 
L 193.228754 279.349513 
L 194.435545 284.973541 
L 195.642336 288.84006 
L 196.849127 291.300573 
L 198.055918 292.355078 
L 201.676291 304.306138 
L 202.883082 299.912366 
L 204.089874 303.251632 
L 205.296665 312.039176 
L 206.503456 324.341738 
L 210.123829 314.85119 
L 211.33062 315.026941 
L 212.537411 310.80892 
L 213.744202 308.524159 
L 214.950993 310.984671 
L 218.571367 322.584229 
L 219.778158 322.584229 
L 220.984949 329.965766 
L 222.19174 342.619829 
L 223.398531 353.516384 
L 227.018904 360.546419 
L 228.225695 359.843415 
L 229.432486 369.685465 
L 230.639278 381.636524 
L 231.846069 374.430738 
L 235.466442 385.854545 
L 236.673233 377.594254 
L 237.880024 370.388468 
L 239.086815 360.194917 
L 240.293606 361.600924 
L 243.91398 359.140412 
L 245.120771 354.922391 
L 246.327562 358.261657 
L 247.534353 356.504149 
L 248.741144 356.504149 
L 252.361517 349.649864 
L 253.568308 343.674335 
L 254.775099 339.280563 
L 255.98189 340.335068 
L 257.188682 340.510819 
L 260.809055 348.068106 
L 262.015846 343.322833 
L 264.429428 342.444078 
L 265.636219 336.468548 
L 269.256592 331.020271 
L 270.463384 329.614264 
L 271.670175 329.614264 
L 272.876966 328.911261 
L 274.083757 331.196022 
L 277.70413 329.965766 
L 278.910921 329.965766 
L 280.117712 327.681005 
L 286.151668 323.638734 
L 288.56525 314.323938 
L 289.772041 308.524159 
L 290.978832 308.87566 
L 294.599205 314.499689 
L 295.805996 319.596464 
L 297.012787 315.554194 
L 298.219579 312.039176 
L 299.42637 312.039176 
L 303.046743 303.075881 
L 304.253534 286.028046 
L 305.460325 280.052516 
L 306.667116 268.101457 
L 307.873907 275.131492 
L 311.494281 266.343948 
L 312.701072 269.155962 
L 313.907863 274.428488 
L 315.114654 283.919036 
L 316.321445 283.919036 
L 319.941818 278.646509 
L 321.148609 274.77999 
L 322.3554 268.80446 
L 323.562191 270.913471 
L 324.768983 275.482993 
L 328.389356 281.458523 
L 329.596147 284.973541 
L 330.802938 284.270537 
L 332.009729 289.191562 
L 333.21652 294.81559 
L 336.836893 310.633169 
L 338.043685 298.682109 
L 339.250476 296.221597 
L 340.457267 291.300573 
L 341.664058 294.112587 
L 345.284431 296.74885 
L 346.491222 297.979106 
L 347.698013 295.518594 
L 348.904804 296.924601 
L 350.111595 292.003576 
L 353.731969 289.191562 
L 354.93876 288.84006 
L 357.352342 279.349513 
L 358.559133 279.701015 
L 362.179506 283.216032 
L 363.386297 278.998011 
L 364.593089 279.349513 
L 367.006671 286.379548 
L 370.627044 285.325043 
L 371.833835 285.676544 
L 373.040626 281.107022 
L 374.247417 283.567534 
L 375.454208 286.73105 
L 379.074582 264.586439 
L 380.281373 252.986881 
L 381.488164 252.283877 
L 382.694955 250.526369 
L 383.901746 241.738825 
L 387.522119 244.550839 
L 388.72891 250.526369 
L 389.935701 246.308348 
L 391.142492 243.144832 
L 392.349284 242.090326 
L 395.969657 242.79333 
L 397.176448 235.411793 
L 398.383239 206.588649 
L 399.59003 204.83114 
L 400.796821 197.801105 
L 404.417194 193.934586 
L 405.623986 194.637589 
L 406.830777 203.073631 
L 408.037568 183.038031 
L 409.244359 174.953491 
L 414.071523 187.959056 
L 415.278314 190.419568 
L 416.485105 218.89121 
L 417.691896 207.643154 
L 421.31227 213.970186 
L 422.519061 204.83114 
L 423.725852 193.583084 
L 424.932643 202.370628 
L 426.139434 191.825575 
L 429.759807 178.468508 
L 430.966598 180.929021 
L 432.17339 163.353933 
L 433.380181 160.89342 
L 434.586972 140.506318 
L 438.207345 111.683174 
L 439.414136 92.350578 
L 440.620927 90.593069 
L 441.827718 67.745455 
L 443.034509 81.805525 
L 446.654883 83.563034 
L 447.861674 90.593069 
L 449.068465 101.138122 
L 450.275256 99.380613 
L 451.482047 113.440683 
L 455.10242 125.391743 
L 456.309211 147.887855 
L 457.516002 147.536354 
L 458.722793 163.705434 
L 459.929585 160.89342 
L 463.549958 148.590859 
L 464.756749 142.263827 
L 471.997495 124.337238 
L 473.204287 134.530789 
L 474.411078 131.367273 
L 475.617869 129.609764 
L 480.445033 136.639799 
L 481.651824 136.288297 
L 482.858615 145.427343 
L 484.065406 152.105876 
L 485.272197 163.705434 
L 488.892571 177.765505 
L 490.099362 171.438473 
L 491.306153 174.953491 
L 492.512944 187.256052 
L 493.719735 183.038031 
L 497.340108 179.523014 
L 498.546899 176.710999 
L 499.753691 163.705434 
L 500.960482 164.408438 
L 502.167273 157.026901 
L 505.787646 141.912325 
L 506.994437 144.372838 
L 508.201228 167.571954 
L 509.408019 147.184852 
L 510.61481 150.699869 
L 514.235184 121.876725 
L 515.441975 127.149252 
L 516.648766 136.991301 
L 517.855557 139.451813 
L 519.062348 147.536354 
L 522.682721 147.536354 
L 523.889512 151.754375 
L 525.096303 147.536354 
L 526.303095 145.778845 
L 527.509886 146.481848 
L 531.130259 151.051371 
L 532.33705 146.130347 
L 533.543841 154.566389 
L 534.750632 152.80888 
L 535.957423 161.244922 
L 539.577797 167.220452 
L 540.784588 164.408438 
L 541.991379 157.378403 
L 543.19817 158.78441 
L 544.404961 170.73547 
L 548.025334 177.062501 
L 549.232125 172.492978 
L 550.438916 166.86895 
L 551.645707 167.923456 
L 552.852498 168.274957 
L 556.472872 174.953491 
L 557.679663 179.171512 
L 558.886454 156.675399 
L 560.093245 159.838915 
L 561.300036 161.596424 
L 564.920409 164.75994 
L 566.1272 172.492978 
L 567.333992 172.492978 
L 568.540783 177.765505 
L 573.367947 176.007996 
L 574.574738 168.977961 
L 575.781529 165.111441 
L 581.815485 150.348368 
L 583.022276 157.026901 
L 584.229067 163.002431 
L 585.435858 158.081406 
L 586.642649 157.729905 
L 590.263022 165.111441 
L 591.469813 161.596424 
L 592.676604 156.675399 
L 593.883396 155.972396 
L 595.090187 160.89342 
L 598.71056 171.086971 
L 599.917351 167.220452 
L 602.330933 147.887855 
L 603.537724 151.051371 
L 607.158098 140.154817 
L 608.364889 146.481848 
L 609.57168 147.536354 
L 610.778471 154.566389 
L 611.985262 174.953491 
L 615.605635 174.953491 
L 616.812426 175.304992 
L 618.019217 171.438473 
L 619.226008 170.383968 
L 620.4328 165.111441 
L 625.259964 159.487413 
L 626.466755 160.89342 
L 632.50071 157.026901 
L 633.707502 159.135912 
L 634.914293 141.560824 
L 636.121084 146.130347 
L 637.327875 147.184852 
L 640.948248 152.105876 
L 642.155039 158.78441 
L 643.36183 174.953491 
L 644.568621 168.626459 
L 645.775412 173.898985 
L 650.602577 174.953491 
L 651.809368 173.898985 
L 653.016159 180.226017 
L 654.22295 178.117007 
L 657.843323 181.280522 
L 660.256905 189.365063 
L 661.463697 187.607554 
L 662.670488 178.117007 
L 666.290861 179.523014 
L 667.497652 175.304992 
L 668.704443 179.874515 
L 669.911234 179.523014 
L 671.118025 177.414003 
L 674.738399 176.710999 
L 675.94519 184.092536 
L 677.151981 181.280522 
L 678.358772 183.389533 
L 679.565563 178.468508 
L 683.185936 178.82001 
L 684.392727 170.383968 
L 685.599518 172.141477 
L 686.806309 172.84448 
L 688.013101 172.84448 
L 691.633474 167.220452 
L 692.840265 166.517449 
L 694.047056 164.056936 
L 695.253847 166.86895 
L 696.460638 165.462943 
L 700.081011 158.78441 
L 701.287803 159.487413 
L 702.494594 161.244922 
L 703.701385 163.705434 
L 704.908176 160.89342 
L 708.528549 146.481848 
L 709.73534 147.184852 
L 710.942131 155.269392 
L 712.148922 149.645364 
L 713.355713 151.754375 
L 716.976087 153.160382 
L 718.182878 157.729905 
L 719.389669 165.111441 
L 720.59646 171.438473 
L 721.803251 168.626459 
L 725.423624 173.195982 
L 726.630415 172.492978 
L 729.043998 169.329463 
L 730.250789 169.329463 
L 733.871162 167.923456 
L 735.077953 174.953491 
L 736.284744 179.874515 
L 737.491535 184.092536 
L 738.698326 197.098101 
L 742.3187 203.776635 
L 745.939073 199.558614 
L 747.145864 197.098101 
L 750.766237 198.85561 
L 751.973028 193.934586 
L 753.179819 193.231582 
L 754.38661 199.910116 
L 755.593402 198.152607 
L 759.213775 192.528579 
L 760.420566 191.474073 
L 761.627357 191.122572 
L 762.834148 192.528579 
L 764.040939 189.716565 
L 767.661312 191.474073 
L 768.868104 194.637589 
L 770.074895 196.043596 
L 771.281686 195.692094 
L 772.488477 194.989091 
L 776.10885 195.340593 
L 777.315641 195.340593 
L 778.522432 196.7466 
L 779.729223 196.043596 
L 780.936014 195.692094 
L 784.556388 198.152607 
L 785.763179 196.7466 
L 786.96997 199.558614 
L 788.176761 201.667624 
L 789.383552 200.964621 
L 794.210716 198.504108 
L 795.417508 196.395098 
L 796.624299 196.043596 
L 797.83109 198.152607 
L 801.451463 197.098101 
L 802.658254 193.583084 
L 805.071836 202.019126 
L 806.278627 207.643154 
L 809.899001 204.128137 
L 811.105792 199.910116 
L 812.312583 201.667624 
L 813.519374 201.667624 
L 814.726165 206.588649 
L 818.346538 209.400663 
L 819.553329 209.752165 
L 820.76012 211.861175 
L 821.966911 210.103666 
L 823.173703 202.72213 
L 826.794076 199.910116 
L 828.000867 190.068066 
L 829.207658 191.122572 
L 830.414449 176.007996 
L 831.62124 176.007996 
L 835.241613 174.953491 
L 836.448405 174.250487 
L 837.655196 176.359498 
L 838.861987 170.73547 
L 840.068778 170.383968 
L 843.689151 164.75994 
L 844.895942 161.596424 
L 846.102733 169.680964 
L 847.309524 173.898985 
L 848.516315 181.983526 
L 853.34348 193.231582 
L 854.550271 190.77107 
L 855.757062 198.85561 
L 856.963853 213.618684 
L 860.584226 210.455168 
L 861.791017 199.207112 
L 864.2046 201.316123 
L 865.411391 200.261617 
L 869.031764 195.340593 
L 870.238555 195.340593 
L 871.445346 194.637589 
L 872.652137 193.231582 
L 873.858928 192.177077 
L 877.479302 196.7466 
L 878.686093 196.043596 
L 879.892884 200.964621 
L 881.099675 200.261617 
L 882.306466 202.019126 
L 885.926839 202.370628 
L 887.13363 201.667624 
L 888.340421 205.534144 
L 889.547213 204.83114 
L 890.754004 202.370628 
L 897.99475 207.643154 
L 899.201541 212.212677 
L 902.821915 212.212677 
L 904.028706 223.109232 
L 905.235497 231.896775 
L 906.442288 229.787765 
L 907.649079 241.035821 
L 912.476243 248.76886 
L 913.683034 257.556404 
L 914.889825 247.362853 
L 916.096616 246.659849 
L 920.923781 253.689884 
L 922.130572 251.580874 
L 923.337363 243.144832 
L 924.544154 240.684319 
L 928.164527 241.738825 
L 929.371318 244.199337 
L 930.57811 245.605344 
L 931.784901 250.174867 
L 932.991692 251.932376 
L 936.612065 249.120362 
L 937.818856 241.387323 
L 939.025647 239.629814 
L 940.232438 241.387323 
L 941.439229 244.550839 
L 945.059603 244.199337 
L 946.266394 240.332818 
L 947.473185 240.684319 
L 948.679976 243.496334 
L 949.886767 243.496334 
L 953.50714 246.308348 
L 954.713931 248.417358 
L 955.920722 252.283877 
L 957.127514 249.471863 
L 958.334305 243.496334 
L 961.954678 236.114797 
L 963.161469 233.302783 
L 964.36826 236.114797 
L 965.575051 240.684319 
L 966.781842 236.8178 
L 970.402216 237.520804 
L 971.609007 240.332818 
L 972.815798 240.332818 
L 974.022589 241.738825 
L 975.22938 246.659849 
L 978.849753 253.338383 
L 980.056544 261.774425 
L 981.263335 256.150397 
L 982.470126 249.823365 
L 983.676918 244.550839 
L 987.297291 242.79333 
L 988.504082 241.387323 
L 989.710873 237.520804 
L 990.917664 236.114797 
L 992.124455 235.763295 
L 995.744828 236.8178 
L 996.95162 236.8178 
L 998.158411 235.060291 
L 999.365202 234.70879 
L 1000.571993 237.169302 
L 1004.192366 241.035821 
L 1005.399157 241.387323 
L 1005.399157 241.387323 
" style="fill:none;stroke:#008fd5;stroke-width:4;"/>
   </g>
   <g id="line2d_16">
    <path clip-path="url(#pd56f36e515)" d="M 1006.605948 237.520804 
L 1007.812739 236.8178 
L 1009.01953 235.411793 
L 1012.639904 236.8178 
L 1013.846695 233.302783 
L 1015.053486 232.599779 
L 1016.260277 232.599779 
L 1021.087441 231.545274 
L 1022.294232 221.703225 
L 1023.501023 222.406228 
L 1024.707815 228.030256 
L 1025.914606 224.163737 
L 1029.534979 223.812235 
L 1030.74177 223.109232 
L 1031.948561 218.188207 
L 1033.155352 214.673189 
L 1034.362143 219.594214 
L 1037.982517 226.975751 
L 1039.189308 225.218242 
L 1040.396099 228.73326 
L 1041.60289 224.86674 
L 1042.809681 228.73326 
L 1046.430054 233.654284 
L 1047.636845 245.956846 
L 1048.843636 241.738825 
" style="fill:none;stroke:#fc4f30;stroke-width:4;"/>
   </g>
   <g id="line2d_17">
    <path clip-path="url(#pd56f36e515)" d="M 1006.605948 253.817167 
L 1007.812739 254.107911 
L 1009.01953 254.161992 
L 1012.639904 253.949512 
L 1013.846695 253.745425 
L 1015.053486 253.245478 
L 1016.260277 252.593741 
L 1021.087441 251.938417 
L 1022.294232 251.263441 
L 1023.501023 249.771361 
L 1024.707815 248.114085 
L 1025.914606 247.068762 
L 1029.534979 246.105513 
L 1030.74177 245.284049 
L 1031.948561 244.568706 
L 1033.155352 243.545712 
L 1034.362143 242.172727 
L 1037.982517 241.22889 
L 1039.189308 241.271695 
L 1040.396099 241.644891 
L 1041.60289 242.471761 
L 1042.809681 243.069897 
L 1046.430054 243.831685 
L 1047.636845 245.011395 
L 1048.843636 247.362132 
" style="fill:none;stroke:#e5ae38;stroke-width:4;"/>
   </g>
   <g id="patch_3">
    <path d="M 92.16 401.76 
L 92.16 51.84 
" style="fill:none;stroke:#f0f0f0;stroke-linecap:square;stroke-linejoin:miter;stroke-width:3;"/>
   </g>
   <g id="patch_4">
    <path d="M 1094.4 401.76 
L 1094.4 51.84 
" style="fill:none;stroke:#f0f0f0;stroke-linecap:square;stroke-linejoin:miter;stroke-width:3;"/>
   </g>
   <g id="patch_5">
    <path d="M 92.16 401.76 
L 1094.4 401.76 
" style="fill:none;stroke:#f0f0f0;stroke-linecap:square;stroke-linejoin:miter;stroke-width:3;"/>
   </g>
   <g id="patch_6">
    <path d="M 92.16 51.84 
L 1094.4 51.84 
" style="fill:none;stroke:#f0f0f0;stroke-linecap:square;stroke-linejoin:miter;stroke-width:3;"/>
   </g>
   <g id="text_17">
    <!-- Symbol[068790] -->
    <g style="fill:#262626;" transform="translate(520.43625 45.84)scale(0.2016 -0.2016)">
     <defs>
      <path d="M 4.5 23 
L 13.421875 23.78125 
Q 14.0625 18.40625 16.375 14.96875 
Q 18.703125 11.53125 23.578125 9.40625 
Q 28.46875 7.28125 34.578125 7.28125 
Q 39.984375 7.28125 44.140625 8.890625 
Q 48.296875 10.5 50.3125 13.296875 
Q 52.34375 16.109375 52.34375 19.4375 
Q 52.34375 22.796875 50.390625 25.3125 
Q 48.4375 27.828125 43.953125 29.546875 
Q 41.0625 30.671875 31.203125 33.03125 
Q 21.34375 35.40625 17.390625 37.5 
Q 12.25 40.1875 9.734375 44.15625 
Q 7.234375 48.140625 7.234375 53.078125 
Q 7.234375 58.5 10.296875 63.203125 
Q 13.375 67.921875 19.28125 70.359375 
Q 25.203125 72.796875 32.421875 72.796875 
Q 40.375 72.796875 46.453125 70.234375 
Q 52.546875 67.671875 55.8125 62.6875 
Q 59.078125 57.71875 59.328125 51.421875 
L 50.25 50.734375 
Q 49.515625 57.515625 45.28125 60.984375 
Q 41.0625 64.453125 32.8125 64.453125 
Q 24.21875 64.453125 20.28125 61.296875 
Q 16.359375 58.15625 16.359375 53.71875 
Q 16.359375 49.859375 19.140625 47.359375 
Q 21.875 44.875 33.421875 42.265625 
Q 44.96875 39.65625 49.265625 37.703125 
Q 55.515625 34.8125 58.484375 30.390625 
Q 61.46875 25.984375 61.46875 20.21875 
Q 61.46875 14.5 58.203125 9.4375 
Q 54.9375 4.390625 48.796875 1.578125 
Q 42.671875 -1.21875 35.015625 -1.21875 
Q 25.296875 -1.21875 18.71875 1.609375 
Q 12.15625 4.4375 8.421875 10.125 
Q 4.6875 15.828125 4.5 23 
z
" id="ArialMT-83"/>
      <path d="M 6.203125 -19.96875 
L 5.21875 -11.71875 
Q 8.109375 -12.5 10.25 -12.5 
Q 13.1875 -12.5 14.9375 -11.515625 
Q 16.703125 -10.546875 17.828125 -8.796875 
Q 18.65625 -7.46875 20.515625 -2.25 
Q 20.75 -1.515625 21.296875 -0.09375 
L 1.609375 51.859375 
L 11.078125 51.859375 
L 21.875 21.828125 
Q 23.96875 16.109375 25.640625 9.8125 
Q 27.15625 15.875 29.25 21.625 
L 40.328125 51.859375 
L 49.125 51.859375 
L 29.390625 -0.875 
Q 26.21875 -9.421875 24.46875 -12.640625 
Q 22.125 -17 19.09375 -19.015625 
Q 16.0625 -21.046875 11.859375 -21.046875 
Q 9.328125 -21.046875 6.203125 -19.96875 
z
" id="ArialMT-121"/>
      <path d="M 6.59375 0 
L 6.59375 51.859375 
L 14.453125 51.859375 
L 14.453125 44.578125 
Q 16.890625 48.390625 20.9375 50.703125 
Q 25 53.03125 30.171875 53.03125 
Q 35.9375 53.03125 39.625 50.640625 
Q 43.3125 48.25 44.828125 43.953125 
Q 50.984375 53.03125 60.84375 53.03125 
Q 68.5625 53.03125 72.703125 48.75 
Q 76.859375 44.484375 76.859375 35.59375 
L 76.859375 0 
L 68.109375 0 
L 68.109375 32.671875 
Q 68.109375 37.9375 67.25 40.25 
Q 66.40625 42.578125 64.15625 43.984375 
Q 61.921875 45.40625 58.890625 45.40625 
Q 53.421875 45.40625 49.796875 41.765625 
Q 46.1875 38.140625 46.1875 30.125 
L 46.1875 0 
L 37.40625 0 
L 37.40625 33.6875 
Q 37.40625 39.546875 35.25 42.46875 
Q 33.109375 45.40625 28.21875 45.40625 
Q 24.515625 45.40625 21.359375 43.453125 
Q 18.21875 41.5 16.796875 37.734375 
Q 15.375 33.984375 15.375 26.90625 
L 15.375 0 
z
" id="ArialMT-109"/>
      <path d="M 14.703125 0 
L 6.546875 0 
L 6.546875 71.578125 
L 15.328125 71.578125 
L 15.328125 46.046875 
Q 20.90625 53.03125 29.546875 53.03125 
Q 34.328125 53.03125 38.59375 51.09375 
Q 42.875 49.171875 45.625 45.671875 
Q 48.390625 42.1875 49.953125 37.25 
Q 51.515625 32.328125 51.515625 26.703125 
Q 51.515625 13.375 44.921875 6.09375 
Q 38.328125 -1.171875 29.109375 -1.171875 
Q 19.921875 -1.171875 14.703125 6.5 
z
M 14.59375 26.3125 
Q 14.59375 17 17.140625 12.84375 
Q 21.296875 6.0625 28.375 6.0625 
Q 34.125 6.0625 38.328125 11.0625 
Q 42.53125 16.0625 42.53125 25.984375 
Q 42.53125 36.140625 38.5 40.96875 
Q 34.46875 45.796875 28.765625 45.796875 
Q 23 45.796875 18.796875 40.796875 
Q 14.59375 35.796875 14.59375 26.3125 
z
" id="ArialMT-98"/>
      <path d="M 6.78125 -19.875 
L 6.78125 71.578125 
L 26.171875 71.578125 
L 26.171875 64.3125 
L 15.578125 64.3125 
L 15.578125 -12.59375 
L 26.171875 -12.59375 
L 26.171875 -19.875 
z
" id="ArialMT-91"/>
      <path d="M 5.46875 16.546875 
L 13.921875 17.328125 
Q 14.984375 11.375 18.015625 8.6875 
Q 21.046875 6 25.78125 6 
Q 29.828125 6 32.875 7.859375 
Q 35.9375 9.71875 37.890625 12.8125 
Q 39.84375 15.921875 41.15625 21.1875 
Q 42.484375 26.46875 42.484375 31.9375 
Q 42.484375 32.515625 42.4375 33.6875 
Q 39.796875 29.5 35.234375 26.875 
Q 30.671875 24.265625 25.34375 24.265625 
Q 16.453125 24.265625 10.296875 30.703125 
Q 4.15625 37.15625 4.15625 47.703125 
Q 4.15625 58.59375 10.578125 65.234375 
Q 17 71.875 26.65625 71.875 
Q 33.640625 71.875 39.421875 68.109375 
Q 45.21875 64.359375 48.21875 57.390625 
Q 51.21875 50.4375 51.21875 37.25 
Q 51.21875 23.53125 48.234375 15.40625 
Q 45.265625 7.28125 39.375 3.03125 
Q 33.5 -1.21875 25.59375 -1.21875 
Q 17.1875 -1.21875 11.859375 3.4375 
Q 6.546875 8.109375 5.46875 16.546875 
z
M 41.453125 48.140625 
Q 41.453125 55.71875 37.421875 60.15625 
Q 33.40625 64.59375 27.734375 64.59375 
Q 21.875 64.59375 17.53125 59.8125 
Q 13.1875 55.03125 13.1875 47.40625 
Q 13.1875 40.578125 17.3125 36.296875 
Q 21.4375 32.03125 27.484375 32.03125 
Q 33.59375 32.03125 37.515625 36.296875 
Q 41.453125 40.578125 41.453125 48.140625 
z
" id="ArialMT-57"/>
      <path d="M 21.296875 -19.875 
L 1.90625 -19.875 
L 1.90625 -12.59375 
L 12.5 -12.59375 
L 12.5 64.3125 
L 1.90625 64.3125 
L 1.90625 71.578125 
L 21.296875 71.578125 
z
" id="ArialMT-93"/>
     </defs>
     <use xlink:href="#ArialMT-83"/>
     <use x="66.699219" xlink:href="#ArialMT-121"/>
     <use x="116.699219" xlink:href="#ArialMT-109"/>
     <use x="200" xlink:href="#ArialMT-98"/>
     <use x="255.615234" xlink:href="#ArialMT-111"/>
     <use x="311.230469" xlink:href="#ArialMT-108"/>
     <use x="333.447266" xlink:href="#ArialMT-91"/>
     <use x="361.230469" xlink:href="#ArialMT-48"/>
     <use x="416.845703" xlink:href="#ArialMT-54"/>
     <use x="472.460938" xlink:href="#ArialMT-56"/>
     <use x="528.076172" xlink:href="#ArialMT-55"/>
     <use x="583.691406" xlink:href="#ArialMT-57"/>
     <use x="639.306641" xlink:href="#ArialMT-48"/>
     <use x="694.921875" xlink:href="#ArialMT-93"/>
    </g>
   </g>
   <g id="legend_1">
    <g id="patch_7">
     <path d="M 970.548125 394.76 
L 1084.6 394.76 
Q 1087.4 394.76 1087.4 391.96 
L 1087.4 333.949688 
Q 1087.4 331.149688 1084.6 331.149688 
L 970.548125 331.149688 
Q 967.748125 331.149688 967.748125 333.949688 
L 967.748125 391.96 
Q 967.748125 394.76 970.548125 394.76 
z
" style="fill:#f0f0f0;opacity:0.8;stroke:#cccccc;stroke-linejoin:miter;stroke-width:0.5;"/>
    </g>
    <g id="line2d_18">
     <path d="M 973.348125 341.870625 
L 1001.348125 341.870625 
" style="fill:none;stroke:#008fd5;stroke-width:4;"/>
    </g>
    <g id="line2d_19"/>
    <g id="text_18">
     <!-- Train -->
     <g style="fill:#262626;" transform="translate(1012.548125 346.770625)scale(0.14 -0.14)">
      <defs>
       <path d="M 25.921875 0 
L 25.921875 63.140625 
L 2.34375 63.140625 
L 2.34375 71.578125 
L 59.078125 71.578125 
L 59.078125 63.140625 
L 35.40625 63.140625 
L 35.40625 0 
z
" id="ArialMT-84"/>
       <path d="M 6.59375 0 
L 6.59375 51.859375 
L 14.5 51.859375 
L 14.5 44.484375 
Q 20.21875 53.03125 31 53.03125 
Q 35.6875 53.03125 39.625 51.34375 
Q 43.5625 49.65625 45.515625 46.921875 
Q 47.46875 44.1875 48.25 40.4375 
Q 48.734375 37.984375 48.734375 31.890625 
L 48.734375 0 
L 39.9375 0 
L 39.9375 31.546875 
Q 39.9375 36.921875 38.90625 39.578125 
Q 37.890625 42.234375 35.28125 43.8125 
Q 32.671875 45.40625 29.15625 45.40625 
Q 23.53125 45.40625 19.453125 41.84375 
Q 15.375 38.28125 15.375 28.328125 
L 15.375 0 
z
" id="ArialMT-110"/>
      </defs>
      <use xlink:href="#ArialMT-84"/>
      <use x="57.333984" xlink:href="#ArialMT-114"/>
      <use x="90.634766" xlink:href="#ArialMT-97"/>
      <use x="146.25" xlink:href="#ArialMT-105"/>
      <use x="168.466797" xlink:href="#ArialMT-110"/>
     </g>
    </g>
    <g id="line2d_20">
     <path d="M 973.348125 361.674063 
L 1001.348125 361.674063 
" style="fill:none;stroke:#fc4f30;stroke-width:4;"/>
    </g>
    <g id="line2d_21"/>
    <g id="text_19">
     <!-- Val -->
     <g style="fill:#262626;" transform="translate(1012.548125 366.574063)scale(0.14 -0.14)">
      <defs>
       <path d="M 28.171875 0 
L 0.4375 71.578125 
L 10.6875 71.578125 
L 29.296875 19.578125 
Q 31.546875 13.328125 33.0625 7.859375 
Q 34.71875 13.71875 36.921875 19.578125 
L 56.25 71.578125 
L 65.921875 71.578125 
L 37.890625 0 
z
" id="ArialMT-86"/>
      </defs>
      <use xlink:href="#ArialMT-86"/>
      <use x="59.324219" xlink:href="#ArialMT-97"/>
      <use x="114.939453" xlink:href="#ArialMT-108"/>
     </g>
    </g>
    <g id="line2d_22">
     <path d="M 973.348125 381.4775 
L 1001.348125 381.4775 
" style="fill:none;stroke:#e5ae38;stroke-width:4;"/>
    </g>
    <g id="line2d_23"/>
    <g id="text_20">
     <!-- Predictions -->
     <g style="fill:#262626;" transform="translate(1012.548125 386.3775)scale(0.14 -0.14)">
      <defs>
       <path d="M 40.234375 0 
L 40.234375 6.546875 
Q 35.296875 -1.171875 25.734375 -1.171875 
Q 19.53125 -1.171875 14.328125 2.25 
Q 9.125 5.671875 6.265625 11.796875 
Q 3.421875 17.921875 3.421875 25.875 
Q 3.421875 33.640625 6 39.96875 
Q 8.59375 46.296875 13.765625 49.65625 
Q 18.953125 53.03125 25.34375 53.03125 
Q 30.03125 53.03125 33.6875 51.046875 
Q 37.359375 49.078125 39.65625 45.90625 
L 39.65625 71.578125 
L 48.390625 71.578125 
L 48.390625 0 
z
M 12.453125 25.875 
Q 12.453125 15.921875 16.640625 10.984375 
Q 20.84375 6.0625 26.5625 6.0625 
Q 32.328125 6.0625 36.34375 10.765625 
Q 40.375 15.484375 40.375 25.140625 
Q 40.375 35.796875 36.265625 40.765625 
Q 32.171875 45.75 26.171875 45.75 
Q 20.3125 45.75 16.375 40.96875 
Q 12.453125 36.1875 12.453125 25.875 
z
" id="ArialMT-100"/>
      </defs>
      <use xlink:href="#ArialMT-80"/>
      <use x="66.699219" xlink:href="#ArialMT-114"/>
      <use x="100" xlink:href="#ArialMT-101"/>
      <use x="155.615234" xlink:href="#ArialMT-100"/>
      <use x="211.230469" xlink:href="#ArialMT-105"/>
      <use x="233.447266" xlink:href="#ArialMT-99"/>
      <use x="283.447266" xlink:href="#ArialMT-116"/>
      <use x="311.230469" xlink:href="#ArialMT-105"/>
      <use x="333.447266" xlink:href="#ArialMT-111"/>
      <use x="389.0625" xlink:href="#ArialMT-110"/>
      <use x="444.677734" xlink:href="#ArialMT-115"/>
     </g>
    </g>
   </g>
  </g>
 </g>
 <defs>
  <clipPath id="pd56f36e515">
   <rect height="349.92" width="1002.24" x="92.16" y="51.84"/>
  </clipPath>
 </defs>
</svg>
